<svg>
	<svg id="logo-full" width="264" height="36" viewBox="0 0 264 36" fill="none" xmlns="http://www.w3.org/2000/svg">
		<g clip-path="url(#clip0_5130_22421)">
			<path fill-rule="evenodd" clip-rule="evenodd" d="M19.1031 0.372518C17.9342 0.684656 17.4504 1.42896 16.7797 2.07766C16.0987 2.73662 15.4564 3.38352 14.7995 4.06841C13.4765 5.44755 12.1239 6.71962 10.7758 8.08368L1.74341 17.1134C1.44032 17.4195 0.947836 17.7485 0.911948 18.2588C0.828409 19.4361 0.915265 21.0149 0.916472 22.2366C0.917678 23.6637 0.729792 33.0903 1.10918 34.0427C1.69425 35.5108 3.46213 36.2132 5.0198 35.3329C5.51771 35.0512 5.59944 34.8422 6.08077 34.4058C6.76234 33.7881 7.47016 32.9271 8.11012 32.3671C8.67528 31.8728 9.56977 30.9409 10.0994 30.386C10.73 29.7246 11.4004 29.1118 12.0943 28.41C13.3335 27.1564 14.8336 25.6364 16.1168 24.3939C17.4583 23.0946 18.3923 21.445 19.5889 22.3805C20.098 22.7783 20.0389 23.3474 20.0368 24.0335C20.0296 26.7127 20.0404 29.3923 20.0341 32.0715C20.0308 33.4724 20.1218 34.4311 20.9702 35.0837C21.7154 35.6571 22.9187 35.955 23.9363 35.4315C24.6426 35.0678 29.2586 30.2699 30.0243 29.5066L32.1025 27.5192C32.3941 27.2589 32.7515 26.764 33.0446 26.4757L36.0728 23.4511C36.4863 23.034 37.4731 21.6332 38.5835 22.3039C39.3878 22.7894 39.1345 24.3103 39.1345 25.7362C39.1345 26.9706 39.0428 32.9485 39.212 33.6639C39.614 35.3633 41.4645 36.1152 42.8521 35.5295C43.6036 35.2125 43.6413 35.0005 44.0213 34.6157L49.0336 29.6037C49.34 29.3109 49.8696 28.949 49.9245 28.483V16.4689C49.9245 15.4486 50.0451 13.5143 49.7224 12.6777C49.3952 11.8299 48.451 11.076 47.3354 11.0187C44.7976 10.8878 43.9963 14.4061 42.3533 13.7929C41.2386 13.3771 41.5429 11.9243 41.5429 10.6058C41.5429 9.28156 41.5399 7.95792 41.5402 6.63397C41.5402 3.95682 42.1027 1.29476 39.7247 0.440676C38.4273 -0.0249674 37.4324 0.576991 36.7906 1.19041C36.0786 1.87048 35.4618 2.5424 34.7567 3.22338C31.613 6.25971 27.9289 10.0289 24.787 13.2061C23.4157 14.5927 22.5595 13.4401 22.4627 12.8764C22.356 12.2537 22.428 6.01241 22.428 4.83714C22.4283 3.47459 22.6141 2.4465 21.931 1.40544C21.4943 0.739845 20.3646 0.0362538 19.1028 0.373423L19.1031 0.372518Z" fill="#2090FF" />
			<path d="M55.3993 6.55081H58.4227L65.532 23.9153H65.7771L72.8863 6.55081H75.9098V27.4699H73.54V11.5763H73.3358L66.7985 27.4699H64.5105L57.9733 11.5763H57.769V27.4699H55.3993V6.55081ZM85.2789 27.8376C84.2847 27.8376 83.3825 27.6503 82.5721 27.2758C81.7618 26.8945 81.1183 26.3463 80.6416 25.6313C80.1649 24.9095 79.9266 24.0378 79.9266 23.0164C79.9266 22.1175 80.1036 21.3889 80.4577 20.8305C80.8118 20.2653 81.2851 19.8227 81.8775 19.5027C82.47 19.1826 83.1237 18.9443 83.8387 18.7876C84.5605 18.6242 85.2857 18.4948 86.0144 18.3995C86.9677 18.2769 87.7406 18.185 88.333 18.1237C88.9323 18.0556 89.3681 17.9433 89.6405 17.7866C89.9197 17.63 90.0593 17.3576 90.0593 16.9695V16.8878C90.0593 15.88 89.7835 15.0968 89.2319 14.5385C88.6871 13.9801 87.8598 13.7009 86.7498 13.7009C85.599 13.7009 84.6967 13.9528 84.043 14.4567C83.3893 14.9607 82.9296 15.4986 82.664 16.0706L80.376 15.2535C80.7846 14.3001 81.3294 13.5579 82.0103 13.0267C82.6981 12.4888 83.4471 12.1142 84.2575 11.9032C85.0746 11.6852 85.8782 11.5763 86.6681 11.5763C87.172 11.5763 87.7508 11.6376 88.4045 11.7601C89.0651 11.8759 89.7018 12.1177 90.3146 12.4854C90.9343 12.8531 91.4484 13.4081 91.857 14.1503C92.2656 14.8926 92.4699 15.8868 92.4699 17.1329V27.4699H90.0593V25.3453H89.9367C89.7733 25.6858 89.5009 26.0501 89.1195 26.4382C88.7382 26.8264 88.2309 27.1566 87.5976 27.429C86.9643 27.7014 86.1914 27.8376 85.2789 27.8376ZM85.6466 25.6721C86.6 25.6721 87.4035 25.4849 88.0572 25.1104C88.7178 24.7358 89.2149 24.2523 89.5485 23.6599C89.889 23.0675 90.0593 22.4444 90.0593 21.7907V19.5844C89.9571 19.7069 89.7324 19.8193 89.3851 19.9214C89.0446 20.0168 88.6497 20.1019 88.2002 20.1768C87.7576 20.2449 87.3252 20.3062 86.903 20.3607C86.4876 20.4083 86.1506 20.4492 85.8918 20.4832C85.2653 20.565 84.6797 20.6977 84.1349 20.8816C83.597 21.0586 83.1611 21.3276 82.8275 21.6885C82.5006 22.0426 82.3372 22.5261 82.3372 23.139C82.3372 23.9766 82.647 24.6099 83.2667 25.0389C83.8932 25.461 84.6865 25.6721 85.6466 25.6721ZM96.8697 27.4699V11.7806H99.1986V14.1503H99.362C99.648 13.374 100.166 12.7441 100.915 12.2607C101.664 11.7772 102.508 11.5354 103.448 11.5354C103.625 11.5354 103.846 11.5388 104.112 11.5456C104.377 11.5525 104.578 11.5627 104.714 11.5763V14.0277C104.633 14.0073 104.445 13.9767 104.153 13.9358C103.867 13.8881 103.564 13.8643 103.243 13.8643C102.481 13.8643 101.8 14.0243 101.201 14.3444C100.608 14.6576 100.138 15.0934 99.791 15.6518C99.4505 16.2034 99.2803 16.8333 99.2803 17.5415V27.4699H96.8697ZM115.378 11.7806V13.8235H107.248V11.7806H115.378ZM109.617 8.02168H112.028V22.9755C112.028 23.6565 112.127 24.1672 112.324 24.5077C112.528 24.8414 112.787 25.0661 113.1 25.1819C113.42 25.2908 113.757 25.3453 114.112 25.3453C114.377 25.3453 114.595 25.3317 114.765 25.3044C114.936 25.2704 115.072 25.2431 115.174 25.2227L115.664 27.3882C115.501 27.4495 115.273 27.5107 114.98 27.572C114.687 27.6401 114.316 27.6742 113.866 27.6742C113.185 27.6742 112.518 27.5278 111.864 27.2349C111.218 26.9421 110.68 26.4961 110.251 25.8969C109.828 25.2976 109.617 24.5418 109.617 23.6293V8.02168ZM119.004 27.4699V11.7806H121.415V27.4699H119.004ZM120.23 9.16569C119.76 9.16569 119.355 9.00567 119.015 8.68562C118.681 8.36557 118.514 7.98083 118.514 7.53139C118.514 7.08196 118.681 6.69722 119.015 6.37716C119.355 6.05711 119.76 5.89709 120.23 5.89709C120.7 5.89709 121.102 6.05711 121.435 6.37716C121.776 6.69722 121.946 7.08196 121.946 7.53139C121.946 7.98083 121.776 8.36557 121.435 8.68562C121.102 9.00567 120.7 9.16569 120.23 9.16569ZM128.241 18.0318V27.4699H125.83V11.7806H128.159V14.232H128.363C128.731 13.4353 129.289 12.7952 130.038 12.3117C130.787 11.8214 131.754 11.5763 132.939 11.5763C134.002 11.5763 134.931 11.7942 135.728 12.23C136.525 12.659 137.144 13.3127 137.587 14.1912C138.029 15.0628 138.251 16.166 138.251 17.5006V27.4699H135.84V17.6641C135.84 16.4315 135.52 15.4714 134.88 14.7836C134.24 14.089 133.361 13.7417 132.245 13.7417C131.475 13.7417 130.787 13.9086 130.181 14.2422C129.582 14.5759 129.109 15.0628 128.762 15.7029C128.414 16.343 128.241 17.1193 128.241 18.0318ZM142.656 27.4699V11.7806H145.066V27.4699H142.656ZM143.881 9.16569C143.412 9.16569 143.006 9.00567 142.666 8.68562C142.332 8.36557 142.165 7.98083 142.165 7.53139C142.165 7.08196 142.332 6.69722 142.666 6.37716C143.006 6.05711 143.412 5.89709 143.881 5.89709C144.351 5.89709 144.753 6.05711 145.087 6.37716C145.427 6.69722 145.597 7.08196 145.597 7.53139C145.597 7.98083 145.427 8.36557 145.087 8.68562C144.753 9.00567 144.351 9.16569 143.881 9.16569ZM157.898 6.55081H160.922L168.031 23.9153H168.276L175.385 6.55081H178.409V27.4699H176.039V11.5763H175.835L169.297 27.4699H167.009L160.472 11.5763H160.268V27.4699H157.898V6.55081ZM187.778 27.8376C186.784 27.8376 185.881 27.6503 185.071 27.2758C184.261 26.8945 183.617 26.3463 183.14 25.6313C182.664 24.9095 182.425 24.0378 182.425 23.0164C182.425 22.1175 182.602 21.3889 182.957 20.8305C183.311 20.2653 183.784 19.8227 184.376 19.5027C184.969 19.1826 185.623 18.9443 186.338 18.7876C187.059 18.6242 187.785 18.4948 188.513 18.3995C189.467 18.2769 190.239 18.185 190.832 18.1237C191.431 18.0556 191.867 17.9433 192.139 17.7866C192.419 17.63 192.558 17.3576 192.558 16.9695V16.8878C192.558 15.88 192.282 15.0968 191.731 14.5385C191.186 13.9801 190.359 13.7009 189.249 13.7009C188.098 13.7009 187.196 13.9528 186.542 14.4567C185.888 14.9607 185.428 15.4986 185.163 16.0706L182.875 15.2535C183.283 14.3001 183.828 13.5579 184.509 13.0267C185.197 12.4888 185.946 12.1142 186.756 11.9032C187.573 11.6852 188.377 11.5763 189.167 11.5763C189.671 11.5763 190.25 11.6376 190.903 11.7601C191.564 11.8759 192.201 12.1177 192.813 12.4854C193.433 12.8531 193.947 13.4081 194.356 14.1503C194.764 14.8926 194.969 15.8868 194.969 17.1329V27.4699H192.558V25.3453H192.436C192.272 25.6858 192 26.0501 191.618 26.4382C191.237 26.8264 190.73 27.1566 190.096 27.429C189.463 27.7014 188.69 27.8376 187.778 27.8376ZM188.145 25.6721C189.099 25.6721 189.902 25.4849 190.556 25.1104C191.217 24.7358 191.714 24.2523 192.047 23.6599C192.388 23.0675 192.558 22.4444 192.558 21.7907V19.5844C192.456 19.7069 192.231 19.8193 191.884 19.9214C191.543 20.0168 191.149 20.1019 190.699 20.1768C190.256 20.2449 189.824 20.3062 189.402 20.3607C188.986 20.4083 188.649 20.4492 188.391 20.4832C187.764 20.565 187.179 20.6977 186.634 20.8816C186.096 21.0586 185.66 21.3276 185.326 21.6885C184.999 22.0426 184.836 22.5261 184.836 23.139C184.836 23.9766 185.146 24.6099 185.766 25.0389C186.392 25.461 187.185 25.6721 188.145 25.6721ZM199.369 27.4699V11.7806H201.697V14.1503H201.861C202.147 13.374 202.664 12.7441 203.413 12.2607C204.162 11.7772 205.007 11.5354 205.947 11.5354C206.124 11.5354 206.345 11.5388 206.611 11.5456C206.876 11.5525 207.077 11.5627 207.213 11.5763V14.0277C207.131 14.0073 206.944 13.9767 206.651 13.9358C206.365 13.8881 206.062 13.8643 205.742 13.8643C204.98 13.8643 204.299 14.0243 203.699 14.3444C203.107 14.6576 202.637 15.0934 202.29 15.6518C201.949 16.2034 201.779 16.8333 201.779 17.5415V27.4699H199.369ZM212.318 21.7498L212.277 18.7672H212.767L219.631 11.7806H222.614L215.3 19.1758H215.096L212.318 21.7498ZM210.071 27.4699V6.55081H212.481V27.4699H210.071ZM220.04 27.4699L213.911 19.7069L215.627 18.0318L223.104 27.4699H220.04ZM231.649 27.7967C230.137 27.7967 228.833 27.4631 227.736 26.7957C226.647 26.1216 225.806 25.1819 225.214 23.9766C224.628 22.7645 224.335 21.3549 224.335 19.7478C224.335 18.1407 224.628 16.7243 225.214 15.4986C225.806 14.2661 226.63 13.3059 227.685 12.6182C228.748 11.9236 229.987 11.5763 231.403 11.5763C232.221 11.5763 233.028 11.7125 233.824 11.9849C234.621 12.2572 235.346 12.6999 236 13.3127C236.654 13.9188 237.175 14.7223 237.563 15.7233C237.951 16.7243 238.145 17.9569 238.145 19.4209V20.4424H226.051V18.3586H235.693C235.693 17.4734 235.516 16.6835 235.162 15.9889C234.815 15.2943 234.318 14.7462 233.671 14.3444C233.031 13.9426 232.275 13.7417 231.403 13.7417C230.443 13.7417 229.613 13.9801 228.911 14.4567C228.217 14.9266 227.682 15.5395 227.307 16.2953C226.933 17.0512 226.746 17.8615 226.746 18.7264V20.1155C226.746 21.3004 226.95 22.3048 227.359 23.1288C227.774 23.9459 228.349 24.569 229.085 24.998C229.82 25.4202 230.675 25.6313 231.649 25.6313C232.282 25.6313 232.854 25.5428 233.365 25.3657C233.882 25.1819 234.328 24.9095 234.703 24.5486C235.077 24.1808 235.367 23.7246 235.571 23.1798L237.9 23.8336C237.655 24.6235 237.243 25.318 236.664 25.9173C236.085 26.5097 235.37 26.9728 234.519 27.3064C233.668 27.6333 232.711 27.7967 231.649 27.7967ZM248.635 11.7806V13.8235H240.504V11.7806H248.635ZM242.874 8.02168H245.285V22.9755C245.285 23.6565 245.384 24.1672 245.581 24.5077C245.785 24.8414 246.044 25.0661 246.357 25.1819C246.677 25.2908 247.014 25.3453 247.369 25.3453C247.634 25.3453 247.852 25.3317 248.022 25.3044C248.192 25.2704 248.329 25.2431 248.431 25.2227L248.921 27.3882C248.758 27.4495 248.53 27.5107 248.237 27.572C247.944 27.6401 247.573 27.6742 247.123 27.6742C246.442 27.6742 245.775 27.5278 245.121 27.2349C244.474 26.9421 243.936 26.4961 243.507 25.8969C243.085 25.2976 242.874 24.5418 242.874 23.6293V8.02168Z" fill="#CAD1E9" />
		</g>
		<defs>
			<clipPath id="clip0_5130_22421">
				<rect width="262.259" height="35.4516" fill="white" transform="translate(0.870422 0.274197)" />
			</clipPath>
		</defs>
	</svg>
	<svg id="logo-icon" width="50" height="36" viewBox="0 0 50 36" fill="none" xmlns="http://www.w3.org/2000/svg">
		<path fill-rule="evenodd" clip-rule="evenodd" d="M19.1031 0.372518C17.9342 0.684656 17.4504 1.42896 16.7797 2.07766C16.0987 2.73662 15.4564 3.38352 14.7995 4.06841C13.4765 5.44755 12.1239 6.71962 10.7758 8.08368L1.74341 17.1134C1.44032 17.4195 0.947836 17.7485 0.911948 18.2588C0.828409 19.4361 0.915265 21.0149 0.916472 22.2366C0.917678 23.6637 0.729792 33.0903 1.10918 34.0427C1.69425 35.5108 3.46213 36.2132 5.0198 35.3329C5.51771 35.0512 5.59944 34.8422 6.08077 34.4058C6.76234 33.7881 7.47016 32.9271 8.11012 32.3671C8.67528 31.8728 9.56977 30.9409 10.0994 30.386C10.73 29.7246 11.4004 29.1118 12.0943 28.41C13.3335 27.1564 14.8336 25.6364 16.1168 24.3939C17.4583 23.0946 18.3923 21.445 19.5889 22.3805C20.098 22.7783 20.0389 23.3474 20.0368 24.0335C20.0296 26.7127 20.0404 29.3923 20.0341 32.0715C20.0308 33.4724 20.1218 34.4311 20.9702 35.0837C21.7154 35.6571 22.9187 35.955 23.9363 35.4315C24.6426 35.0678 29.2586 30.2699 30.0243 29.5066L32.1025 27.5192C32.3941 27.2589 32.7515 26.764 33.0446 26.4757L36.0728 23.4511C36.4863 23.034 37.4731 21.6332 38.5835 22.3039C39.3878 22.7894 39.1345 24.3103 39.1345 25.7362C39.1345 26.9706 39.0428 32.9485 39.212 33.6639C39.614 35.3633 41.4645 36.1152 42.8521 35.5295C43.6036 35.2125 43.6413 35.0005 44.0213 34.6157L49.0336 29.6037C49.34 29.3109 49.8696 28.949 49.9245 28.483V16.4689C49.9245 15.4486 50.0451 13.5143 49.7224 12.6777C49.3952 11.8299 48.451 11.076 47.3354 11.0187C44.7976 10.8878 43.9963 14.4061 42.3533 13.7929C41.2386 13.3771 41.5429 11.9243 41.5429 10.6058C41.5429 9.28156 41.5399 7.95792 41.5402 6.63397C41.5402 3.95682 42.1027 1.29476 39.7247 0.440676C38.4273 -0.0249674 37.4324 0.576991 36.7906 1.19041C36.0786 1.87048 35.4618 2.5424 34.7567 3.22338C31.613 6.25971 27.9289 10.0289 24.787 13.2061C23.4157 14.5927 22.5595 13.4401 22.4627 12.8764C22.356 12.2537 22.428 6.01241 22.428 4.83714C22.4283 3.47459 22.6141 2.4465 21.931 1.40544C21.4943 0.739845 20.3646 0.0362538 19.1028 0.373423L19.1031 0.372518Z" fill="#2090FF" />
	</svg>
	<svg id="arrow-right" width="16" height="16" viewBox="0 0 16 16" fill="none" xmlns="http://www.w3.org/2000/svg">
		<path d="M6.00028 4C6.00028 4 10.0002 6.94593 10.0002 8C10.0002 9.05413 6.00024 12 6.00024 12" stroke="#CAD1E9" stroke-width="1.25" stroke-linecap="round" stroke-linejoin="round" />
	</svg>
	<svg id="underline" width="411" height="18" viewBox="0 0 411 18" fill="none" xmlns="http://www.w3.org/2000/svg">
		<path d="M1 15C71.7885 5.94452 252.692 -6.73316 410 15" stroke="url(#paint0_linear_5130_22455)" stroke-width="6" />
		<defs>
			<linearGradient id="paint0_linear_5130_22455" x1="-64.5943" y1="16.0216" x2="135.943" y2="-228.722" gradientUnits="userSpaceOnUse">
				<stop stop-color="#090EDB" />
				<stop offset="1" stop-color="#E73DC4" />
			</linearGradient>
		</defs>
	</svg>
	<svg id="circle-check" width="21" height="21" viewBox="0 0 21 21" fill="none" xmlns="http://www.w3.org/2000/svg">
		<path fill-rule="evenodd" clip-rule="evenodd" d="M10.0625 18.1304C14.4808 18.1304 18.0625 14.5486 18.0625 10.1304C18.0625 5.71209 14.4808 2.13037 10.0625 2.13037C5.64422 2.13037 2.0625 5.71209 2.0625 10.1304C2.0625 14.5486 5.64422 18.1304 10.0625 18.1304ZM13.7696 8.83748C14.1601 8.44695 14.1601 7.81379 13.7696 7.42326C13.3791 7.03274 12.7459 7.03274 12.3554 7.42326L9.0625 10.7162L7.76961 9.42326C7.37908 9.03274 6.74592 9.03274 6.35539 9.42326C5.96487 9.81379 5.96487 10.447 6.35539 10.8375L8.35539 12.8375C8.74592 13.228 9.37908 13.228 9.76961 12.8375L13.7696 8.83748Z" fill="#2090FF" />
	</svg>
	<svg id="arrow-down" width="24" height="24" viewBox="0 0 24 25" fill="none" xmlns="http://www.w3.org/2000/svg">
		<path d="M11.9973 16.9962C12.1644 16.9937 12.3292 16.9569 12.4815 16.888C12.6338 16.8191 12.7702 16.7196 12.8823 16.5957L20.1198 9.18866C20.2243 9.08558 20.3067 8.96236 20.3622 8.82648C20.4176 8.69061 20.4449 8.54489 20.4423 8.39816C20.4439 8.24969 20.416 8.10237 20.3603 7.96476C20.3045 7.82715 20.222 7.70197 20.1175 7.59649C20.013 7.49101 19.8886 7.40732 19.7515 7.35027C19.6144 7.29323 19.4673 7.26396 19.3188 7.26416C19.0143 7.26416 18.7188 7.38866 18.4998 7.60766L12.0063 14.2827L5.49485 7.60766C5.2767 7.39132 4.98305 7.26816 4.67585 7.26416C4.52723 7.26376 4.38002 7.29288 4.24276 7.34984C4.1055 7.40679 3.98092 7.49045 3.87625 7.59595C3.77159 7.70146 3.68893 7.8267 3.63306 7.96441C3.5772 8.10212 3.54926 8.24956 3.55085 8.39816C3.55085 8.71316 3.66635 8.97866 3.87485 9.18866L11.1213 16.5957C11.3778 16.8627 11.6643 16.9962 11.9973 16.9962Z" fill="white" />
	</svg>
	<svg id="x" width="26" height="23" viewBox="0 0 26 23" fill="none" xmlns="http://www.w3.org/2000/svg">
		<g clip-path="url(#clip0_5130_22758)">
			<path d="M20.0674 0.202637H23.8495L15.5886 9.61423L25.3424 22.3766H17.6787L11.707 14.6403L4.83954 22.3766H1.05746L9.9155 12.3244L0.559814 0.202637H8.42257L13.8469 7.29829L20.0674 0.202637ZM18.7238 20.1099H20.8139L7.27799 2.32148H4.98883L18.7238 20.1099Z" fill="white" />
		</g>
		<defs>
			<clipPath id="clip0_5130_22758">
				<rect width="24.6609" height="22.2839" fill="white" transform="translate(0.559753 0.202637)" />
			</clipPath>
		</defs>
	</svg>
	<svg id="telegram" width="24" height="24" viewBox="0 0 24 24" fill="none" xmlns="http://www.w3.org/2000/svg">
		<g clip-path="url(#clip0_5130_22762)">
			<path d="M23.1335 3.26096C23.1155 3.17845 23.0759 3.10217 23.0189 3.03993C22.9618 2.97769 22.8892 2.93172 22.8085 2.90669C22.5149 2.84879 22.2112 2.8705 21.9288 2.96958C21.9288 2.96958 2.33773 10.011 1.21902 10.7908C0.977249 10.9585 0.896891 11.0556 0.857062 11.1709C0.663506 11.7257 1.26584 11.9703 1.26584 11.9703L6.31506 13.6159C6.40035 13.6306 6.4879 13.6253 6.5708 13.6005C7.71956 12.8752 18.1276 6.30266 18.7292 6.08185C18.8235 6.0532 18.8934 6.08185 18.878 6.15173C18.6321 6.99443 9.64394 14.9819 9.59433 15.0308C9.57021 15.0506 9.55126 15.076 9.53909 15.1047C9.52692 15.1334 9.5219 15.1647 9.52445 15.1957L9.05489 20.1227C9.05489 20.1227 8.85784 21.66 10.3923 20.1227C11.4803 19.0333 12.5242 18.1319 13.0476 17.6938C14.784 18.8922 16.6525 20.2177 17.4581 20.9081C17.5933 21.0394 17.7536 21.1421 17.9294 21.21C18.1051 21.278 18.2928 21.3098 18.4811 21.3036C19.2498 21.2742 19.4594 20.4336 19.4594 20.4336C19.4594 20.4336 23.0286 6.07067 23.1488 4.14559C23.16 3.95693 23.1761 3.83604 23.1775 3.70677C23.1838 3.55684 23.169 3.40676 23.1335 3.26096V3.26096Z" fill="white" />
		</g>
		<defs>
			<clipPath id="clip0_5130_22762">
				<rect width="22.3602" height="22.3602" fill="white" transform="translate(0.818787 0.905762)" />
			</clipPath>
		</defs>
	</svg>
	<svg id="discord" width="31" height="24" viewBox="0 0 31 24" fill="none" xmlns="http://www.w3.org/2000/svg">
		<g clip-path="url(#clip0_5130_22766)">
			<mask id="mask0_5130_22766" style="mask-type:luminance" maskUnits="userSpaceOnUse" x="0" y="0" width="31" height="24">
				<path d="M30.2617 0.347656H0.261719V23.8259H30.2617V0.347656Z" fill="white" />
			</mask>
			<g mask="url(#mask0_5130_22766)">
				<path d="M25.6579 2.43843C23.7458 1.55207 21.6953 0.899028 19.5515 0.525006C19.5124 0.517788 19.4734 0.535827 19.4533 0.571907C19.1896 1.04575 18.8975 1.66391 18.693 2.14978C16.3871 1.80102 14.0931 1.80102 11.8345 2.14978C11.6299 1.65311 11.3272 1.04575 11.0623 0.571907C11.0422 0.537031 11.0032 0.518992 10.9642 0.525006C8.82148 0.897833 6.77105 1.55087 4.85777 2.43843C4.8412 2.44565 4.82701 2.45769 4.81758 2.47331C0.928336 8.34347 -0.137091 14.0694 0.385572 19.7242C0.387937 19.7519 0.403309 19.7784 0.424594 19.7952C2.99061 21.699 5.47623 22.8547 7.9157 23.6208C7.95474 23.6329 7.9961 23.6184 8.02095 23.5859C8.59801 22.7898 9.1124 21.9504 9.55344 21.0676C9.57947 21.0159 9.55462 20.9545 9.50143 20.9341C8.68551 20.6214 7.9086 20.2402 7.16126 19.8072C7.10215 19.7723 7.09741 19.6869 7.15179 19.646C7.30906 19.527 7.46637 19.4031 7.61654 19.278C7.64371 19.2552 7.68157 19.2504 7.71351 19.2648C12.6232 21.5294 17.9385 21.5294 22.7903 19.2648C22.8222 19.2492 22.8601 19.254 22.8884 19.2768C23.0387 19.4019 23.1959 19.527 23.3544 19.646C23.4088 19.6869 23.4052 19.7723 23.3461 19.8072C22.5988 20.2486 21.8218 20.6214 21.0047 20.9329C20.9515 20.9533 20.9279 21.0159 20.9539 21.0676C21.4044 21.9491 21.9188 22.7886 22.4852 23.5847C22.5089 23.6184 22.5514 23.6329 22.5905 23.6208C25.0418 22.8547 27.5274 21.699 30.0934 19.7952C30.1159 19.7784 30.1301 19.7531 30.1324 19.7254C30.7579 13.1878 29.0847 7.50884 25.6969 2.4745C25.6886 2.45769 25.6744 2.44565 25.6579 2.43843ZM10.2866 16.281C8.80847 16.281 7.59051 14.91 7.59051 13.2263C7.59051 11.5425 8.78485 10.1715 10.2866 10.1715C11.8002 10.1715 13.0064 11.5546 12.9827 13.2263C12.9827 14.91 11.7884 16.281 10.2866 16.281ZM20.255 16.281C18.7769 16.281 17.559 14.91 17.559 13.2263C17.559 11.5425 18.7533 10.1715 20.255 10.1715C21.7686 10.1715 22.9748 11.5546 22.9511 13.2263C22.9511 14.91 21.7686 16.281 20.255 16.281Z" fill="white" />
			</g>
		</g>
		<defs>
			<clipPath id="clip0_5130_22766">
				<rect width="30.1542" height="23.3588" fill="white" transform="translate(0.261719 0.347656)" />
			</clipPath>
		</defs>
	</svg>
</svg>
