<svg width="50" height="36" viewBox="0 0 50 36" fill="none" xmlns="http://www.w3.org/2000/svg">
	<path fill-rule="evenodd" clip-rule="evenodd" d="M19.1031 0.372518C17.9342 0.684656 17.4504 1.42896 16.7797 2.07766C16.0987 2.73662 15.4564 3.38352 14.7995 4.06841C13.4765 5.44755 12.1239 6.71962 10.7758 8.08368L1.74341 17.1134C1.44032 17.4195 0.947836 17.7485 0.911948 18.2588C0.828409 19.4361 0.915265 21.0149 0.916472 22.2366C0.917678 23.6637 0.729792 33.0903 1.10918 34.0427C1.69425 35.5108 3.46213 36.2132 5.0198 35.3329C5.51771 35.0512 5.59944 34.8422 6.08077 34.4058C6.76234 33.7881 7.47016 32.9271 8.11012 32.3671C8.67528 31.8728 9.56977 30.9409 10.0994 30.386C10.73 29.7246 11.4004 29.1118 12.0943 28.41C13.3335 27.1564 14.8336 25.6364 16.1168 24.3939C17.4583 23.0946 18.3923 21.445 19.5889 22.3805C20.098 22.7783 20.0389 23.3474 20.0368 24.0335C20.0296 26.7127 20.0404 29.3923 20.0341 32.0715C20.0308 33.4724 20.1218 34.4311 20.9702 35.0837C21.7154 35.6571 22.9187 35.955 23.9363 35.4315C24.6426 35.0678 29.2586 30.2699 30.0243 29.5066L32.1025 27.5192C32.3941 27.2589 32.7515 26.764 33.0446 26.4757L36.0728 23.4511C36.4863 23.034 37.4731 21.6332 38.5835 22.3039C39.3878 22.7894 39.1345 24.3103 39.1345 25.7362C39.1345 26.9706 39.0428 32.9485 39.212 33.6639C39.614 35.3633 41.4645 36.1152 42.8521 35.5295C43.6036 35.2125 43.6413 35.0005 44.0213 34.6157L49.0336 29.6037C49.34 29.3109 49.8696 28.949 49.9245 28.483V16.4689C49.9245 15.4486 50.0451 13.5143 49.7224 12.6777C49.3952 11.8299 48.451 11.076 47.3354 11.0187C44.7976 10.8878 43.9963 14.4061 42.3533 13.7929C41.2386 13.3771 41.5429 11.9243 41.5429 10.6058C41.5429 9.28156 41.5399 7.95792 41.5402 6.63397C41.5402 3.95682 42.1027 1.29476 39.7247 0.440676C38.4273 -0.0249674 37.4324 0.576991 36.7906 1.19041C36.0786 1.87048 35.4618 2.5424 34.7567 3.22338C31.613 6.25971 27.9289 10.0289 24.787 13.2061C23.4157 14.5927 22.5595 13.4401 22.4627 12.8764C22.356 12.2537 22.428 6.01241 22.428 4.83714C22.4283 3.47459 22.6141 2.4465 21.931 1.40544C21.4943 0.739845 20.3646 0.0362538 19.1028 0.373423L19.1031 0.372518Z" fill="#2090FF" />
</svg>
